<svg id="Layer_1" data-name="Layer 1" xmlns="http://www.w3.org/2000/svg" viewBox="0 0 175 60"><defs><style>.cls-1{fill:#231f20;}</style></defs><title>edc_2019_as_logo_general_vector_trademarked_175x60_r01</title><path class="cls-1" d="M114.964,47.6A10.493,10.493,0,1,1,123.771,31.4h11.417a21.01,21.01,0,0,0-32.152-11.6c0-7.9.011-16.316.011-17.395L92.553,7.887l-.042,11a21.275,21.275,0,0,0-25.6,3.658A21.014,21.014,0,1,0,64.3,53.958l-6.47-8.3a10.478,10.478,0,0,1-13.594-1.242l17.044-4.458A20.958,20.958,0,0,0,98.5,50.15,21.008,21.008,0,0,0,135.188,42.8H123.771A10.483,10.483,0,0,1,114.964,47.6ZM51.757,26.61a10.458,10.458,0,0,1,7.611,3.274L41.581,34.536A10.5,10.5,0,0,1,51.757,26.61ZM92.321,39.055a10.569,10.569,0,0,1-10.288,8.52c-9.619,0-14.076-12.466-6.642-18.57C82.8,22.922,94.094,29.657,92.321,39.055Z"/><g id="_Group_" data-name="&lt;Group&gt;"><path class="cls-1" d="M138.949,56.16V49.506h2.828a4.827,4.827,0,0,1,1.55.179,1.525,1.525,0,0,1,.774.638,1.912,1.912,0,0,1,.291,1.048,1.868,1.868,0,0,1-.246.973,1.66,1.66,0,0,1-.195.264,2.013,2.013,0,0,1-1.12.592c.13.132.316.329.524.582a8.2,8.2,0,0,1,.764,1.08c.171.277.448.723.813,1.3h-1.607l-.971-1.448a9.5,9.5,0,0,0-.708-.978,1.037,1.037,0,0,0-.4-.277,2.219,2.219,0,0,0-.677-.075h-.272V56.16Zm1.344-3.84h.994a5.087,5.087,0,0,0,1.207-.082.72.72,0,0,0,.377-.281.866.866,0,0,0,.136-.5.8.8,0,0,0-.179-.542.82.82,0,0,0-.506-.261q-.163-.023-.981-.023h-1.048Z"/></g><g id="_Group_2" data-name="&lt;Group&gt;"><path id="_Compound_Path_" data-name="&lt;Compound Path&gt;" class="cls-1" d="M141.448,58.781a5.927,5.927,0,0,1-3.326-1.016,6,6,0,0,1-.88-.726,5.948,5.948,0,1,1,8.412-8.412,5.952,5.952,0,0,1,1.274,1.89,5.948,5.948,0,0,1-.548,5.642,5.976,5.976,0,0,1-1.606,1.606,5.937,5.937,0,0,1-3.326,1.016Zm0-11.393a5.445,5.445,0,1,0,5.445,5.445A5.45,5.45,0,0,0,141.448,47.388Z"/></g></svg>